<mxfile host="Electron" modified="2024-06-08T14:27:00.115Z" agent="Mozilla/5.0 (Windows NT 10.0; Win64; x64) AppleWebKit/537.36 (KHTML, like Gecko) draw.io/24.4.8 Chrome/124.0.6367.207 Electron/30.0.6 Safari/537.36" etag="DvNbKovs900Xeml8Qw2y" version="24.4.8" type="device">
  <diagram name="Сторінка-1" id="hulqifiNZXJl1owI4d8X">
    <mxGraphModel dx="1131" dy="1696" grid="0" gridSize="10" guides="1" tooltips="1" connect="1" arrows="1" fold="1" page="1" pageScale="1" pageWidth="827" pageHeight="1169" math="0" shadow="0">
      <root>
        <mxCell id="0" />
        <mxCell id="1" parent="0" />
        <mxCell id="CaEb_067ruCqt1RR53pY-1" style="edgeStyle=orthogonalEdgeStyle;rounded=0;orthogonalLoop=1;jettySize=auto;html=1;exitX=0.5;exitY=1;exitDx=0;exitDy=0;entryX=0.5;entryY=0;entryDx=0;entryDy=0;" edge="1" parent="1" source="CaEb_067ruCqt1RR53pY-2" target="CaEb_067ruCqt1RR53pY-6">
          <mxGeometry relative="1" as="geometry" />
        </mxCell>
        <mxCell id="CaEb_067ruCqt1RR53pY-2" value="" style="ellipse;whiteSpace=wrap;html=1;aspect=fixed;" vertex="1" parent="1">
          <mxGeometry x="449" y="250" width="20" height="20" as="geometry" />
        </mxCell>
        <mxCell id="CaEb_067ruCqt1RR53pY-3" style="edgeStyle=orthogonalEdgeStyle;rounded=0;orthogonalLoop=1;jettySize=auto;html=1;exitX=0;exitY=0.5;exitDx=0;exitDy=0;" edge="1" parent="1" source="CaEb_067ruCqt1RR53pY-6" target="CaEb_067ruCqt1RR53pY-18">
          <mxGeometry relative="1" as="geometry" />
        </mxCell>
        <mxCell id="CaEb_067ruCqt1RR53pY-4" style="edgeStyle=orthogonalEdgeStyle;rounded=0;orthogonalLoop=1;jettySize=auto;html=1;exitX=0.5;exitY=1;exitDx=0;exitDy=0;entryX=0.5;entryY=0;entryDx=0;entryDy=0;" edge="1" parent="1" source="CaEb_067ruCqt1RR53pY-6" target="CaEb_067ruCqt1RR53pY-13">
          <mxGeometry relative="1" as="geometry" />
        </mxCell>
        <mxCell id="CaEb_067ruCqt1RR53pY-5" style="edgeStyle=orthogonalEdgeStyle;rounded=0;orthogonalLoop=1;jettySize=auto;html=1;exitX=1;exitY=0.5;exitDx=0;exitDy=0;" edge="1" parent="1" source="CaEb_067ruCqt1RR53pY-6" target="CaEb_067ruCqt1RR53pY-7">
          <mxGeometry relative="1" as="geometry" />
        </mxCell>
        <mxCell id="CaEb_067ruCqt1RR53pY-6" value="Оберіть дію" style="rounded=1;whiteSpace=wrap;html=1;" vertex="1" parent="1">
          <mxGeometry x="399" y="330" width="120" height="60" as="geometry" />
        </mxCell>
        <mxCell id="CaEb_067ruCqt1RR53pY-7" value="&lt;b&gt;Видалити захід&lt;/b&gt;" style="rounded=0;whiteSpace=wrap;html=1;" vertex="1" parent="1">
          <mxGeometry x="609" y="410" width="200" height="30" as="geometry" />
        </mxCell>
        <mxCell id="CaEb_067ruCqt1RR53pY-8" value="entry/Вибрати захід" style="rounded=0;whiteSpace=wrap;html=1;" vertex="1" parent="1">
          <mxGeometry x="609" y="440" width="200" height="30" as="geometry" />
        </mxCell>
        <mxCell id="CaEb_067ruCqt1RR53pY-10" style="edgeStyle=orthogonalEdgeStyle;rounded=0;orthogonalLoop=1;jettySize=auto;html=1;exitX=0.5;exitY=1;exitDx=0;exitDy=0;entryX=1;entryY=0.5;entryDx=0;entryDy=0;" edge="1" parent="1" source="CaEb_067ruCqt1RR53pY-11" target="CaEb_067ruCqt1RR53pY-23">
          <mxGeometry relative="1" as="geometry">
            <mxPoint x="539" y="830" as="targetPoint" />
          </mxGeometry>
        </mxCell>
        <mxCell id="CaEb_067ruCqt1RR53pY-11" value="&lt;span style=&quot;text-wrap: nowrap;&quot;&gt;exit/&lt;/span&gt;&lt;span style=&quot;text-wrap: nowrap;&quot;&gt;Видалення заходу&lt;/span&gt;" style="rounded=0;whiteSpace=wrap;html=1;" vertex="1" parent="1">
          <mxGeometry x="609" y="470" width="200" height="30" as="geometry" />
        </mxCell>
        <mxCell id="CaEb_067ruCqt1RR53pY-12" value="" style="group" vertex="1" connectable="0" parent="1">
          <mxGeometry x="359" y="550" width="200" height="120" as="geometry" />
        </mxCell>
        <mxCell id="CaEb_067ruCqt1RR53pY-13" value="&lt;b&gt;Редагувати заходу&lt;/b&gt;" style="rounded=0;whiteSpace=wrap;html=1;" vertex="1" parent="CaEb_067ruCqt1RR53pY-12">
          <mxGeometry width="200" height="30" as="geometry" />
        </mxCell>
        <mxCell id="CaEb_067ruCqt1RR53pY-14" value="entry/Вибрати захід" style="rounded=0;whiteSpace=wrap;html=1;" vertex="1" parent="CaEb_067ruCqt1RR53pY-12">
          <mxGeometry y="30" width="200" height="30" as="geometry" />
        </mxCell>
        <mxCell id="CaEb_067ruCqt1RR53pY-15" value="&lt;span style=&quot;text-wrap: nowrap;&quot;&gt;do/Редагування заходу&lt;/span&gt;" style="rounded=0;whiteSpace=wrap;html=1;" vertex="1" parent="CaEb_067ruCqt1RR53pY-12">
          <mxGeometry y="60" width="200" height="30" as="geometry" />
        </mxCell>
        <mxCell id="CaEb_067ruCqt1RR53pY-16" value="&lt;span style=&quot;text-wrap: nowrap;&quot;&gt;exit/&lt;/span&gt;&lt;span style=&quot;text-wrap: nowrap;&quot;&gt;Підтвердження&amp;nbsp;&lt;/span&gt;&lt;span style=&quot;text-wrap: nowrap; background-color: initial;&quot;&gt;редагування&lt;/span&gt;&lt;div&gt;&lt;span style=&quot;text-wrap: nowrap; background-color: initial;&quot;&gt;&amp;nbsp;заходу&lt;/span&gt;&lt;/div&gt;" style="rounded=0;whiteSpace=wrap;html=1;" vertex="1" parent="CaEb_067ruCqt1RR53pY-12">
          <mxGeometry y="90" width="200" height="30" as="geometry" />
        </mxCell>
        <mxCell id="CaEb_067ruCqt1RR53pY-17" value="" style="group" vertex="1" connectable="0" parent="1">
          <mxGeometry x="19" y="430" width="200" height="120" as="geometry" />
        </mxCell>
        <mxCell id="CaEb_067ruCqt1RR53pY-18" value="&lt;b&gt;Створити захід&lt;/b&gt;" style="rounded=0;whiteSpace=wrap;html=1;" vertex="1" parent="CaEb_067ruCqt1RR53pY-17">
          <mxGeometry width="200" height="30" as="geometry" />
        </mxCell>
        <mxCell id="CaEb_067ruCqt1RR53pY-19" value="entry/Вказівка мети заходу" style="rounded=0;whiteSpace=wrap;html=1;" vertex="1" parent="CaEb_067ruCqt1RR53pY-17">
          <mxGeometry y="30" width="200" height="30" as="geometry" />
        </mxCell>
        <mxCell id="CaEb_067ruCqt1RR53pY-20" value="&lt;span style=&quot;text-wrap: nowrap;&quot;&gt;do/Введення даних заходу&lt;/span&gt;" style="rounded=0;whiteSpace=wrap;html=1;" vertex="1" parent="CaEb_067ruCqt1RR53pY-17">
          <mxGeometry y="60" width="200" height="30" as="geometry" />
        </mxCell>
        <mxCell id="CaEb_067ruCqt1RR53pY-22" value="" style="curved=1;endArrow=classic;html=1;rounded=0;exitX=0.18;exitY=0.033;exitDx=0;exitDy=0;exitPerimeter=0;entryX=0.435;entryY=-0.1;entryDx=0;entryDy=0;entryPerimeter=0;" edge="1" parent="CaEb_067ruCqt1RR53pY-17" source="CaEb_067ruCqt1RR53pY-18" target="CaEb_067ruCqt1RR53pY-18">
          <mxGeometry width="50" height="50" relative="1" as="geometry">
            <mxPoint x="30" y="-10" as="sourcePoint" />
            <mxPoint x="80" y="-10" as="targetPoint" />
            <Array as="points">
              <mxPoint x="50" y="-70" />
              <mxPoint x="80" y="-70" />
            </Array>
          </mxGeometry>
        </mxCell>
        <mxCell id="CaEb_067ruCqt1RR53pY-37" value="&lt;span style=&quot;text-wrap: nowrap;&quot;&gt;do/Вибір запрошених учасників&lt;/span&gt;" style="rounded=0;whiteSpace=wrap;html=1;" vertex="1" parent="CaEb_067ruCqt1RR53pY-17">
          <mxGeometry y="90" width="200" height="30" as="geometry" />
        </mxCell>
        <mxCell id="CaEb_067ruCqt1RR53pY-23" value="" style="ellipse;whiteSpace=wrap;html=1;aspect=fixed;" vertex="1" parent="1">
          <mxGeometry x="619" y="880" width="20" height="20" as="geometry" />
        </mxCell>
        <mxCell id="CaEb_067ruCqt1RR53pY-24" style="edgeStyle=orthogonalEdgeStyle;rounded=0;orthogonalLoop=1;jettySize=auto;html=1;exitX=0.5;exitY=1;exitDx=0;exitDy=0;entryX=1;entryY=0.5;entryDx=0;entryDy=0;" edge="1" parent="1" source="CaEb_067ruCqt1RR53pY-16" target="CaEb_067ruCqt1RR53pY-30">
          <mxGeometry relative="1" as="geometry">
            <mxPoint x="459" y="800" as="targetPoint" />
          </mxGeometry>
        </mxCell>
        <mxCell id="CaEb_067ruCqt1RR53pY-25" value="" style="curved=1;endArrow=classic;html=1;rounded=0;exitX=0.18;exitY=0.033;exitDx=0;exitDy=0;exitPerimeter=0;entryX=0.435;entryY=-0.1;entryDx=0;entryDy=0;entryPerimeter=0;" edge="1" parent="1">
          <mxGeometry width="50" height="50" relative="1" as="geometry">
            <mxPoint x="389" y="550.5" as="sourcePoint" />
            <mxPoint x="440" y="546.5" as="targetPoint" />
            <Array as="points">
              <mxPoint x="403" y="479.5" />
              <mxPoint x="433" y="479.5" />
            </Array>
          </mxGeometry>
        </mxCell>
        <mxCell id="CaEb_067ruCqt1RR53pY-26" value="OnStringTyped" style="text;html=1;align=center;verticalAlign=middle;resizable=0;points=[];autosize=1;strokeColor=none;fillColor=none;" vertex="1" parent="1">
          <mxGeometry x="19" y="320" width="100" height="30" as="geometry" />
        </mxCell>
        <mxCell id="CaEb_067ruCqt1RR53pY-27" value="OnStringTyped" style="text;html=1;align=center;verticalAlign=middle;resizable=0;points=[];autosize=1;strokeColor=none;fillColor=none;" vertex="1" parent="1">
          <mxGeometry x="343" y="450" width="100" height="30" as="geometry" />
        </mxCell>
        <mxCell id="CaEb_067ruCqt1RR53pY-28" style="edgeStyle=orthogonalEdgeStyle;rounded=0;orthogonalLoop=1;jettySize=auto;html=1;exitX=0.5;exitY=1;exitDx=0;exitDy=0;entryX=0.1;entryY=0.067;entryDx=0;entryDy=0;entryPerimeter=0;" edge="1" parent="1" source="CaEb_067ruCqt1RR53pY-21" target="CaEb_067ruCqt1RR53pY-30">
          <mxGeometry relative="1" as="geometry" />
        </mxCell>
        <mxCell id="CaEb_067ruCqt1RR53pY-29" value="" style="group" vertex="1" connectable="0" parent="1">
          <mxGeometry x="139" y="820" width="200" height="90" as="geometry" />
        </mxCell>
        <mxCell id="CaEb_067ruCqt1RR53pY-30" value="&lt;b&gt;Перевірка даних&lt;/b&gt;" style="rounded=0;whiteSpace=wrap;html=1;container=0;" vertex="1" parent="CaEb_067ruCqt1RR53pY-29">
          <mxGeometry width="200" height="30" as="geometry" />
        </mxCell>
        <mxCell id="CaEb_067ruCqt1RR53pY-31" value="entry/Перевірка даних заходу" style="rounded=0;whiteSpace=wrap;html=1;container=0;" vertex="1" parent="CaEb_067ruCqt1RR53pY-29">
          <mxGeometry y="30" width="200" height="30" as="geometry" />
        </mxCell>
        <mxCell id="CaEb_067ruCqt1RR53pY-32" value="&lt;span style=&quot;text-wrap: nowrap;&quot;&gt;exit/Зберегти&lt;/span&gt;" style="rounded=0;whiteSpace=wrap;html=1;container=0;" vertex="1" parent="CaEb_067ruCqt1RR53pY-29">
          <mxGeometry y="60" width="200" height="30" as="geometry" />
        </mxCell>
        <mxCell id="CaEb_067ruCqt1RR53pY-33" style="edgeStyle=orthogonalEdgeStyle;rounded=0;orthogonalLoop=1;jettySize=auto;html=1;entryX=0;entryY=0.75;entryDx=0;entryDy=0;" edge="1" parent="1" target="CaEb_067ruCqt1RR53pY-6">
          <mxGeometry relative="1" as="geometry">
            <mxPoint x="319" y="820" as="sourcePoint" />
            <Array as="points">
              <mxPoint x="319" y="375" />
            </Array>
          </mxGeometry>
        </mxCell>
        <mxCell id="CaEb_067ruCqt1RR53pY-34" value="[data_is_incorrect]" style="text;html=1;align=center;verticalAlign=middle;resizable=0;points=[];autosize=1;strokeColor=none;fillColor=none;" vertex="1" parent="1">
          <mxGeometry x="199" y="610" width="120" height="30" as="geometry" />
        </mxCell>
        <mxCell id="CaEb_067ruCqt1RR53pY-35" style="edgeStyle=orthogonalEdgeStyle;rounded=0;orthogonalLoop=1;jettySize=auto;html=1;entryX=0;entryY=0.5;entryDx=0;entryDy=0;" edge="1" parent="1" target="CaEb_067ruCqt1RR53pY-23">
          <mxGeometry relative="1" as="geometry">
            <mxPoint x="339" y="890" as="sourcePoint" />
          </mxGeometry>
        </mxCell>
        <mxCell id="CaEb_067ruCqt1RR53pY-36" value="[data_is_correct]" style="text;html=1;align=center;verticalAlign=middle;resizable=0;points=[];autosize=1;strokeColor=none;fillColor=none;" vertex="1" parent="1">
          <mxGeometry x="394" y="860" width="110" height="30" as="geometry" />
        </mxCell>
        <mxCell id="CaEb_067ruCqt1RR53pY-21" value="&lt;span style=&quot;text-wrap: nowrap;&quot;&gt;exit/Підтвердження&lt;/span&gt;&lt;span style=&quot;text-wrap: nowrap; background-color: initial;&quot;&gt;створення&amp;nbsp;&lt;/span&gt;&lt;div&gt;&lt;span style=&quot;text-wrap: nowrap; background-color: initial;&quot;&gt;заходу&lt;/span&gt;&lt;/div&gt;" style="rounded=0;whiteSpace=wrap;html=1;" vertex="1" parent="1">
          <mxGeometry x="19" y="550" width="200" height="30" as="geometry" />
        </mxCell>
      </root>
    </mxGraphModel>
  </diagram>
</mxfile>
